<svg width="1000" height="1000" xmlns="http://www.w3.org/2000/svg" xmlns:svg="http://www.w3.org/2000/svg">
 <style type="text/css">.st0{fill:#A0141F;stroke:#FFFFFF;stroke-width:18;stroke-miterlimit:10;}
	.st1{fill:#375099;stroke:#FFFFFF;stroke-width:18;stroke-miterlimit:10;}
	.st2{fill:#F4DD47;stroke:#FFFFFF;stroke-width:18;stroke-miterlimit:10;}
	.st3{font-family:&#x27;TimesNewRomanPS-BoldItalicMT';}
	.st4{font-size:282.1605px;}
	.st5{fill:#FFFFFF;}</style>
 <title>Logo YT yeltsing tovar</title>
 <g>
  <title>Layer 1</title>
  <rect id="svg_1" height="582.5" width="582.5" class="st0" y="262.5" x="278.8"/>
  <circle id="svg_2" r="312" cy="463" cx="483" class="st1"/>
  <polygon id="svg_3" points="150.1,460 150.1,225.3 353.4,342.6 556.7,460 353.4,577.4 150.1,694.7 " class="st2"/>
  <g id="svg_4">
   <path id="svg_5" d="m218.9,462.8l-15.7,-68.1c-2.7,-11.8 -5.9,-19.8 -9.6,-24.1c-2.8,-3.3 -8,-5.6 -15.6,-7l1.5,-5.1l89.7,0l-1.7,5.1c-8.7,0 -15.1,1.8 -19.1,5.3c-4,3.5 -6,7.7 -6,12.6c0,3 0.8,8.3 2.5,15.8l12.1,55.2l30.2,-41.6c7.7,-10.7 12.5,-18.2 14.5,-22.5c1.9,-4.4 2.9,-8.2 2.9,-11.5s-1.2,-6.2 -3.7,-8.7c-2.5,-2.5 -6.5,-4 -12,-4.7l1.5,-5.1l56.1,0l0,5.1c-5.1,0.6 -9.4,2.2 -13.1,5c-3.7,2.8 -10.8,11.5 -21.5,26.2l-53,73l-12.4,43.3c-2.7,8.9 -4,14.1 -4,15.6c0,4 1.5,7.2 4.5,9.8c3,2.6 8.1,3.9 15.3,3.9l5.2,0l-1.5,5.1l-95.6,0l1.4,-5.1c7,0.1 12.6,-0.8 16.8,-2.8c4.2,-2 7.4,-4.5 9.5,-7.6c1.5,-2.2 3.6,-8.1 6.5,-17.6l14.3,-49.5z"/>
  </g>
  <text id="svg_6" class="st3 st4" transform="matrix(1,0,0,1,308.1069,545.3252) ">t</text>
  <polygon id="svg_7" points="678.8,315.9 694,325.8 710.8,319 706,336.5 717.7,350.3 699.6,351.2 690,366.6 683.6,349.7 666,345.3   680.1,334 " class="st5"/>
  <polygon id="svg_8" points="605.8,239.9 621,249.8 637.8,243 633,260.5 644.7,274.4 626.6,275.2 617,290.6 610.6,273.7 593,269.3   607.1,258 " class="st5"/>
  <polygon id="svg_9" points="712.3,420.9 727.4,430.9 744.2,424 739.5,441.5 751.2,455.4 733,456.3 723.5,471.7 717,454.7   699.4,450.4 713.6,439 " class="st5"/>
  <polygon id="svg_10" points="517.3,209.5 532.5,219.4 549.3,212.6 544.5,230.1 556.2,244 538.1,244.8 528.5,260.3 522.1,243.3   504.5,238.9 518.6,227.6 " class="st5"/>
  <polygon id="svg_11" points="696.6,512.6 711.8,522.5 728.6,515.7 723.8,533.2 735.5,547.1 717.4,547.9 707.8,563.4 701.4,546.4   683.8,542 697.9,530.7 " class="st5"/>
  <polygon id="svg_12" points="420.7,220.5 435.9,230.4 452.7,223.6 447.9,241.1 459.6,255 441.5,255.8 431.9,271.2 425.5,254.3   407.9,249.9 422,238.6 " class="st5"/>
  <polygon fill="black" id="svg_13" points="649.5,581.5 664.7000122070312,591.5 681.5,584.5999755859375 676.7999877929688,602.2000122070312 688.5,616 670.2999877929688,616.9000244140625 660.7999877929688,632.2999877929688 654.2999877929688,615.2999877929688 636.7000122070312,611 650.9000244140625,599.5999755859375 " class="st5"/>
  <polygon id="svg_14" fill="black" points="586.8999633789062,632.6000366210938 602.0999755859375,642.6000366210938 618.8999633789062,635.699951171875 614.199951171875,653.300048828125 625.8999633789062,667.0999755859375 607.699951171875,668.0000610351562 598.199951171875,683.4000244140625 591.699951171875,666.4000244140625 574.0999755859375,662.0999755859375 588.300048828125,650.699951171875 " class="st5"/>
 </g>
</svg>